<?xml version="1.0" standalone="no"?>
<!DOCTYPE svg PUBLIC "-//W3C//DTD SVG 20010904//EN"
 "http://www.w3.org/TR/2001/REC-SVG-20010904/DTD/svg10.dtd">
<svg version="1.0" xmlns="http://www.w3.org/2000/svg"
 width="300.000000pt" height="300.000000pt" viewBox="0 0 300.000000 300.000000"
 preserveAspectRatio="xMidYMid meet">
<metadata>
Created by potrace 1.10, written by Peter Selinger 2001-2011
</metadata>
<g transform="translate(0.000000,300.000000) scale(0.100000,-0.100000)"
fill="#000000" stroke="none">
<path d="M1632 2276 c-62 -24 -117 -47 -123 -53 -13 -13 9 -73 35 -95 20 -16
23 -16 52 1 17 10 48 24 70 31 21 7 44 16 49 20 6 4 25 11 42 15 18 3 35 10
37 14 5 7 -39 112 -46 110 -2 0 -54 -19 -116 -43z m125 -7 c13 -34 26 -25
-121 -84 -50 -19 -93 -32 -97 -28 -4 5 -11 20 -14 35 -6 22 -3 29 11 34 11 3
57 21 104 39 47 18 90 34 95 34 6 1 16 -13 22 -30z"/>
<path d="M1635 2235 c-44 -19 -84 -36 -90 -38 -5 -2 -7 -7 -3 -11 3 -4 26 1
50 12 23 10 67 27 96 38 28 10 52 22 52 26 0 13 -21 8 -105 -27z"/>
<path d="M1290 2214 c-6 -14 -10 -27 -10 -30 0 -2 -9 -23 -19 -47 -11 -23 -43
-98 -72 -167 -53 -129 -60 -146 -103 -243 -14 -32 -26 -60 -26 -63 0 -3 -31
-79 -70 -169 -38 -90 -70 -166 -70 -169 0 -4 -11 -29 -25 -58 -14 -28 -25 -55
-25 -59 0 -8 -54 -131 -70 -161 -13 -23 -13 -38 1 -38 6 0 17 -7 25 -15 9 -8
31 -15 50 -15 20 0 45 -5 56 -11 17 -9 23 -8 32 7 6 11 11 21 12 24 0 3 6 18
12 33 7 16 12 33 12 38 0 5 5 9 10 9 6 0 10 7 10 16 0 9 6 28 14 42 14 27 43
91 86 187 12 28 35 77 51 111 16 33 29 68 29 77 0 9 4 17 10 17 5 0 13 12 16
28 6 25 23 64 45 102 5 8 12 22 15 30 3 8 14 33 25 56 10 23 19 51 19 63 0 34
18 24 29 -16 5 -21 33 -128 61 -238 28 -110 63 -240 77 -290 14 -49 29 -106
34 -125 45 -198 56 -226 95 -245 21 -10 46 -14 61 -10 18 4 23 2 17 -6 -4 -7
-3 -9 3 -6 5 3 27 2 47 -4 21 -6 40 -8 43 -5 4 4 -39 182 -84 346 -8 30 -21
80 -28 110 -7 30 -20 79 -28 108 -9 29 -16 55 -16 57 -1 3 -3 10 -6 17 -2 7
-8 33 -14 58 -5 25 -25 106 -44 180 -19 74 -52 200 -72 280 -50 197 -55 206
-119 214 -79 9 -86 8 -96 -20z m150 -48 c6 -28 15 -60 20 -71 5 -11 36 -130
70 -265 34 -135 73 -288 87 -340 14 -52 29 -115 35 -140 5 -25 13 -54 17 -65
8 -20 25 -84 41 -155 5 -19 20 -79 34 -133 14 -54 26 -99 26 -101 0 -3 -15 -1
-32 4 -18 4 -54 11 -80 15 -26 3 -50 10 -52 14 -5 8 -43 149 -71 261 -7 30
-18 71 -23 90 -15 52 -68 254 -102 388 -17 64 -37 131 -45 149 -8 17 -15 39
-15 48 0 33 -22 8 -49 -55 -16 -36 -39 -90 -53 -120 -14 -30 -35 -77 -48 -105
-12 -27 -40 -88 -61 -133 -22 -46 -39 -86 -39 -88 0 -4 -41 -95 -90 -199 -20
-44 -45 -99 -55 -122 -11 -24 -22 -43 -26 -43 -13 0 -113 20 -116 24 -2 1 4
20 13 42 9 21 23 55 31 74 11 28 16 32 24 20 7 -11 8 -8 4 10 -4 15 3 45 16
75 19 43 23 47 31 30 7 -17 8 -16 3 5 -6 34 46 170 56 144 4 -13 6 -8 6 16 0
19 9 56 21 82 12 26 22 52 22 57 0 6 5 11 10 11 6 0 10 7 10 15 0 14 8 35 51
130 10 22 33 77 51 122 21 50 36 77 41 70 5 -7 5 -2 2 11 -4 13 -3 28 2 35 6
7 16 28 23 47 7 19 26 63 42 98 15 35 28 71 28 80 0 13 2 14 9 4 7 -11 9 -11
14 2 5 12 19 15 56 15 l50 -2 11 -51z"/>
<path d="M1348 2189 c-44 -25 -3 -58 48 -38 l29 11 -24 19 c-27 22 -30 22 -53
8z"/>
<path d="M1408 2129 c-3 -8 -2 -21 2 -29 7 -14 21 -67 41 -150 4 -19 13 -53
19 -75 6 -22 13 -51 15 -65 2 -14 9 -43 15 -65 6 -22 16 -65 22 -95 6 -30 14
-59 19 -64 5 -6 9 -21 9 -34 0 -13 5 -32 10 -43 6 -10 13 -38 16 -61 3 -24 8
-50 11 -58 4 -8 12 -40 19 -70 6 -30 21 -91 33 -135 12 -44 23 -87 24 -95 1
-8 6 -21 10 -27 5 -7 6 -13 3 -13 -2 0 0 -15 5 -32 6 -18 12 -42 14 -52 3 -11
12 -27 21 -35 15 -15 16 -14 9 4 -4 11 -11 40 -16 64 -5 25 -13 59 -18 75 -6
17 -17 60 -26 96 -9 36 -23 88 -31 116 -8 28 -14 59 -14 70 0 10 -6 36 -14 59
-7 22 -21 74 -31 115 -9 41 -23 98 -30 125 -8 28 -21 79 -30 115 -9 36 -20 79
-26 96 -5 16 -13 50 -18 75 -17 81 -41 171 -50 187 -7 12 -9 12 -13 1z"/>
<path d="M1352 1910 c0 -14 2 -19 5 -12 2 6 2 18 0 25 -3 6 -5 1 -5 -13z"/>
<path d="M1285 1898 c-10 -31 -8 -27 -34 -83 -12 -27 -28 -63 -36 -80 -18 -41
-72 -161 -95 -210 -10 -22 -25 -56 -33 -75 -27 -61 -68 -154 -87 -195 -64
-138 -100 -222 -100 -231 0 -2 4 -4 8 -4 5 0 17 19 27 43 10 23 33 74 50 112
46 101 68 150 105 235 18 41 50 112 71 158 22 46 39 85 39 87 0 2 16 38 36 82
66 144 74 163 74 173 0 19 -18 10 -25 -12z"/>
<path d="M1793 2167 c4 -11 10 -31 14 -45 3 -14 12 -37 19 -51 8 -14 14 -35
14 -47 0 -11 3 -23 6 -27 4 -3 21 -48 39 -100 l33 -95 -125 -61 c-69 -34 -127
-60 -128 -59 -2 2 -5 11 -7 21 -2 14 16 26 82 56 121 53 124 54 138 52 6 -1
12 5 12 13 0 15 -10 12 -177 -58 -69 -29 -77 -31 -68 -16 6 10 -8 14 -17 5 -3
-3 0 -25 7 -48 15 -51 53 -71 83 -44 10 9 26 17 34 17 9 0 18 3 20 8 7 16 129
73 145 68 13 -4 32 -47 62 -138 24 -73 49 -139 55 -146 8 -11 1 -13 -40 -7
-94 12 -92 11 -110 73 -9 31 -20 64 -24 72 -4 9 -11 30 -15 48 -3 18 -10 32
-15 32 -19 0 42 -195 71 -226 17 -18 33 -24 68 -24 43 0 44 -1 25 -16 -17 -15
-17 -15 8 0 37 22 48 20 48 -7 0 -13 5 -28 11 -34 8 -8 -28 -31 -134 -84 -80
-40 -148 -71 -150 -69 -2 3 -7 19 -10 36 -6 30 -5 31 95 80 55 27 102 53 105
57 6 10 -40 -9 -140 -59 l-79 -39 7 -40 c3 -22 15 -47 25 -57 19 -17 21 -17
77 13 32 17 69 39 83 48 14 10 53 30 88 46 34 16 62 33 62 37 0 11 -116 349
-130 381 -7 15 -20 27 -29 27 -12 0 -12 3 -3 12 15 15 15 42 2 66 -9 15 -78
212 -101 288 -5 18 -17 38 -26 45 -15 12 -16 12 -10 -4z"/>
<path d="M1757 2163 c-3 -5 3 -28 14 -52 10 -24 19 -52 19 -62 0 -10 5 -19 10
-19 6 0 10 -9 10 -19 0 -22 38 -116 45 -110 4 5 -81 258 -89 266 -2 2 -6 0 -9
-4z"/>
<path d="M1720 2149 c0 -5 5 -7 10 -4 6 3 10 8 10 11 0 2 -4 4 -10 4 -5 0 -10
-5 -10 -11z"/>
<path d="M1680 2126 c0 -34 76 -222 97 -242 24 -22 84 -36 104 -24 17 11 -12
27 -61 34 l-45 7 -41 114 c-22 63 -37 115 -32 115 4 0 8 -5 8 -11 0 -5 5 -7
11 -3 8 4 7 9 -2 15 -21 13 -39 11 -39 -5z"/>
<path d="M1760 1810 c-8 -5 -10 -10 -5 -10 6 0 17 5 25 10 8 5 11 10 5 10 -5
0 -17 -5 -25 -10z"/>
<path d="M1715 1790 c-3 -5 -2 -10 4 -10 5 0 13 5 16 10 3 6 2 10 -4 10 -5 0
-13 -4 -16 -10z"/>
<path d="M1670 1770 c-8 -5 -10 -10 -5 -10 6 0 17 5 25 10 8 5 11 10 5 10 -5
0 -17 -5 -25 -10z"/>
<path d="M1907 1724 c-6 -7 11 -64 24 -78 5 -6 9 -18 9 -28 0 -9 6 -32 14 -50
8 -18 19 -46 25 -62 7 -16 14 -27 16 -24 4 4 -70 236 -78 244 -2 2 -6 1 -10
-2z"/>
<path d="M1910 1349 c-63 -34 -119 -65 -124 -70 -14 -13 1 -24 16 -12 28 22
207 113 219 111 6 -2 13 5 14 15 2 9 0 17 -3 17 -4 0 -59 -28 -122 -61z"/>
<path d="M1150 1294 c-24 -56 -25 -64 -5 -64 8 0 15 -6 15 -13 0 -11 29 -15
119 -20 66 -4 131 -12 146 -19 15 -7 29 -8 34 -2 10 11 -21 110 -39 127 -10 9
-12 8 -6 -7 6 -17 2 -18 -36 -12 -24 3 -77 8 -119 12 -67 6 -77 4 -83 -11 -3
-10 -4 -20 -1 -23 3 -3 5 1 5 8 0 10 21 11 103 5 56 -4 109 -7 118 -7 8 0 20
-13 26 -28 l11 -29 -41 5 c-23 2 -86 8 -140 13 -54 5 -99 10 -102 12 -8 9 21
79 32 79 7 0 13 5 13 10 0 6 -7 10 -15 10 -8 0 -23 -21 -35 -46z"/>
<path d="M1240 1321 c48 -12 162 -22 129 -12 -14 5 -56 11 -95 14 -46 4 -58 3
-34 -2z"/>
<path d="M2125 1195 c24 -68 46 -129 50 -135 5 -8 -20 -10 -83 -9 l-90 2 -27
98 c-15 54 -31 96 -35 94 -5 -3 1 -38 12 -78 11 -39 23 -81 26 -91 13 -46 37
-56 132 -56 51 0 90 4 90 10 0 14 -78 241 -92 268 -6 12 -15 22 -18 22 -4 0
12 -56 35 -125z"/>
<path d="M2050 1280 c0 -11 5 -20 10 -20 6 0 10 -11 10 -24 0 -14 4 -27 9 -30
5 -3 12 -21 15 -40 7 -36 35 -100 42 -93 4 4 -32 123 -45 147 -5 9 -12 30 -16
48 -7 35 -25 44 -25 12z"/>
<path d="M1285 900 c3 -5 10 -10 16 -10 5 0 9 5 9 10 0 6 -7 10 -16 10 -8 0
-12 -4 -9 -10z"/>
<path d="M1420 900 c0 -5 7 -10 15 -10 8 0 15 5 15 10 0 6 -7 10 -15 10 -8 0
-15 -4 -15 -10z"/>
<path d="M1280 869 c0 -5 28 -9 62 -9 34 0 59 3 55 6 -10 10 -117 13 -117 3z"/>
<path d="M1420 870 c-11 -7 -7 -10 18 -10 20 0 31 4 27 10 -8 13 -26 13 -45 0z"/>
<path d="M1482 868 c5 -15 28 -18 29 -3 0 6 -7 12 -17 13 -10 3 -15 -1 -12
-10z"/>
<path d="M1535 870 c-3 -5 1 -10 9 -10 9 0 16 5 16 10 0 6 -4 10 -9 10 -6 0
-13 -4 -16 -10z"/>
<path d="M1590 870 c0 -5 5 -10 11 -10 5 0 7 5 4 10 -3 6 -8 10 -11 10 -2 0
-4 -4 -4 -10z"/>
<path d="M1520 829 c0 -5 5 -7 10 -4 6 3 10 8 10 11 0 2 -4 4 -10 4 -5 0 -10
-5 -10 -11z"/>
</g>
</svg>
